<svg width="384" height="150" viewBox="0 0 384 150" fill="none" xmlns="http://www.w3.org/2000/svg">
<path d="M315.74 93.3157C317.746 111.018 326.132 113.648 330.075 112.75C332.173 114.166 335.012 116.902 329.587 116.52C322.805 116.044 315.177 114.717 312.831 101.008C310.485 87.2987 306.266 80.8992 300.337 80.0917C295.593 79.4457 293.405 84.8899 293.415 88.2243C293.632 89.9591 294.519 93.1167 291.777 93.1167C287.524 93.1166 288.315 79.5029 295.841 77.069C308.007 73.1316 314.92 86.0774 315.74 93.3157Z" fill="#68483E"/>
<path d="M315.74 93.3157C317.746 111.018 326.132 113.648 330.075 112.75C332.173 114.166 335.012 116.902 329.587 116.52C322.805 116.044 315.177 114.717 312.831 101.008C310.485 87.2987 306.266 80.8992 300.337 80.0917C295.593 79.4457 293.405 84.8899 293.415 88.2243C293.632 89.9591 294.519 93.1167 291.777 93.1167C287.524 93.1166 288.315 79.5029 295.841 77.069C308.007 73.1316 314.92 86.0774 315.74 93.3157Z" fill="url(#paint0_linear)"/>
<path d="M323.964 140.042C324.968 141.298 326.801 144.087 326.104 145.194C325.232 146.578 323.33 143.272 322.141 143.426C321.19 143.549 319.969 145.933 318.574 147.04C317.993 147.501 316.704 148.455 316.196 148.578C315.562 148.731 313.898 148.193 318.812 143.81C314.944 147.132 313.502 147.347 313.264 147.04C312.774 146.632 315.619 143.709 316.784 142.817C313.655 144.819 312.76 144.329 312.709 143.81C313.607 142.657 316.212 139.996 319.446 138.581C322.68 137.166 323.805 138.966 323.964 140.042Z" fill="#CFAEA3"/>
<path d="M323.964 140.042C324.968 141.298 326.801 144.087 326.104 145.194C325.232 146.578 323.33 143.272 322.141 143.426C321.19 143.549 319.969 145.933 318.574 147.04C317.993 147.501 316.704 148.455 316.196 148.578C315.562 148.731 313.898 148.193 318.812 143.81C314.944 147.132 313.502 147.347 313.264 147.04C312.774 146.632 315.619 143.709 316.784 142.817C313.655 144.819 312.76 144.329 312.709 143.81C313.607 142.657 316.212 139.996 319.446 138.581C322.68 137.166 323.805 138.966 323.964 140.042Z" fill="url(#paint1_linear)"/>
<path d="M373.379 139.426C373.791 138.177 369.771 136.998 367.709 136.564C367.267 136.065 365.956 135.067 364.248 135.067C362.54 135.067 361.229 136.325 360.787 136.954C359.069 139.426 355.986 144.579 357.4 145.412C358.814 146.245 360.787 142.983 361.597 141.248C361.401 141.704 360.964 142.784 360.787 143.46C360.566 144.479 360.419 146.427 361.597 146.063C363.482 145.438 364.15 142.593 364.248 141.248C364.42 142.051 364.808 143.72 364.984 143.981C365.328 144.458 366.207 145.373 366.973 145.217C367.738 145.061 367.783 143.807 367.709 143.2C367.562 142.332 367.517 140.506 368.519 140.142C369.771 139.687 372.864 140.988 373.379 139.426Z" fill="#CFAEA3"/>
<path d="M373.379 139.426C373.791 138.177 369.771 136.998 367.709 136.564C367.267 136.065 365.956 135.067 364.248 135.067C362.54 135.067 361.229 136.325 360.787 136.954C359.069 139.426 355.986 144.579 357.4 145.412C358.814 146.245 360.787 142.983 361.597 141.248C361.401 141.704 360.964 142.784 360.787 143.46C360.566 144.479 360.419 146.427 361.597 146.063C363.482 145.438 364.15 142.593 364.248 141.248C364.42 142.051 364.808 143.72 364.984 143.981C365.328 144.458 366.207 145.373 366.973 145.217C367.738 145.061 367.783 143.807 367.709 143.2C367.562 142.332 367.517 140.506 368.519 140.142C369.771 139.687 372.864 140.988 373.379 139.426Z" fill="url(#paint2_linear)"/>
<path d="M324.421 141.535C329.722 140.364 345.821 126.485 353.207 119.692C346.704 118.15 333.83 115.979 334.36 119.634C334.89 123.288 327.66 131.424 323.979 135.035C322.727 135.992 320.136 138.069 319.782 138.724C319.12 140.149 319.12 142.707 324.421 141.535Z" fill="#68483E"/>
<path d="M324.421 141.535C329.722 140.364 345.821 126.485 353.207 119.692C346.704 118.15 333.83 115.979 334.36 119.634C334.89 123.288 327.66 131.424 323.979 135.035C322.727 135.992 320.136 138.069 319.782 138.724C319.12 140.149 319.12 142.707 324.421 141.535Z" fill="url(#paint3_linear)"/>
<path d="M371.911 95.1205C370.439 85.2313 367.027 83.4964 365.505 83.8651L362.044 103.904C362.928 105.335 366.02 107.222 367.493 107.222C368.966 107.222 373.752 107.482 371.911 95.1205Z" fill="#68483E"/>
<path d="M371.911 95.1205C370.439 85.2313 367.027 83.4964 365.505 83.8651L362.044 103.904C362.928 105.335 366.02 107.222 367.493 107.222C368.966 107.222 373.752 107.482 371.911 95.1205Z" fill="url(#paint4_linear)"/>
<path d="M329.081 113.651C321.234 97.6188 339.086 81.7787 348.992 75.8626L365.511 81.9158C367.059 86.4214 368.166 97.0311 360.201 103.425C360.909 108.879 356.907 117.608 354.818 121.291C348.525 122.976 334.567 123.806 329.081 113.651Z" fill="#68483E"/>
<path d="M329.081 113.651C321.234 97.6188 339.086 81.7787 348.992 75.8626L365.511 81.9158C367.059 86.4214 368.166 97.0311 360.201 103.425C360.909 108.879 356.907 117.608 354.818 121.291C348.525 122.976 334.567 123.806 329.081 113.651Z" fill="url(#paint5_linear)"/>
<path d="M329.081 113.651C321.234 97.6188 339.086 81.7787 348.992 75.8626L365.511 81.9158C367.059 86.4214 368.166 97.0311 360.201 103.425C360.909 108.879 356.907 117.608 354.818 121.291C348.525 122.976 334.567 123.806 329.081 113.651Z" fill="url(#paint6_linear)"/>
<mask id="mask0" mask-type="alpha" maskUnits="userSpaceOnUse" x="327" y="75" width="40" height="48">
<path d="M329.129 113.639C321.294 97.5843 339.119 81.7219 349.011 75.7976L365.506 81.8593C367.052 86.3712 368.157 96.9958 360.204 103.399C360.911 108.86 356.915 117.601 354.828 121.289C348.545 122.977 334.607 123.808 329.129 113.639Z" fill="#68483E"/>
</mask>
<g mask="url(#mask0)">
<path d="M347.832 102.28C344.416 92.4405 353.773 84.1739 358.878 81.2706C361.725 81.1529 367.891 81.7296 369.776 84.9782C371.662 88.2268 364.573 104.301 360.793 111.932C356.62 112.834 348.186 112.167 347.832 102.28Z" fill="#CFAEA3"/>
<path d="M347.832 102.28C344.416 92.4405 353.773 84.1739 358.878 81.2706C361.725 81.1529 367.891 81.7296 369.776 84.9782C371.662 88.2268 364.573 104.301 360.793 111.932C356.62 112.834 348.186 112.167 347.832 102.28Z" fill="url(#paint7_linear)"/>
<path d="M347.832 102.28C344.416 92.4405 353.773 84.1739 358.878 81.2706C361.725 81.1529 367.891 81.7296 369.776 84.9782C371.662 88.2268 364.573 104.301 360.793 111.932C356.62 112.834 348.186 112.167 347.832 102.28Z" fill="url(#paint8_linear)"/>
<path d="M368.326 84.5935C355.78 85.2256 348.687 79.9742 346.529 77.1784L349.623 75.5374L364.369 80.4605C365.664 80.8859 367.981 82.1623 368.326 84.5935Z" fill="#381110" fill-opacity="0.6"/>
<path d="M346.898 104.359C346.485 102.485 345.45 97.5494 343.731 95.3157L347.561 96.8121C348.493 98.5253 348.194 101.236 346.898 104.359Z" fill="#512D28"/>
</g>
<path d="M344.668 64.5421C345.159 59.9445 350.942 49.9165 363.372 49.1879C364.217 49.1383 365.033 49.14 365.818 49.1879C367.752 48.8409 371.62 47.7176 371.62 46C372.503 49.227 371.251 50.0745 370.515 50.0949C378.156 52.6766 382.605 59.8578 383.033 64.0217C383.205 65.6915 382.533 70.0851 380.824 72.2191C380.883 74.301 380.505 77.3372 380.309 78.595C379.695 80.6119 377.069 84.3724 369.411 84.3203C355.154 84.3203 347.867 78.0095 346.657 75.1468C345.896 73.3469 344.197 68.7581 344.668 64.5421Z" fill="#68483E"/>
<path d="M344.668 64.5421C345.159 59.9445 350.942 49.9165 363.372 49.1879C364.217 49.1383 365.033 49.14 365.818 49.1879C367.752 48.8409 371.62 47.7176 371.62 46C372.503 49.227 371.251 50.0745 370.515 50.0949C378.156 52.6766 382.605 59.8578 383.033 64.0217C383.205 65.6915 382.533 70.0851 380.824 72.2191C380.883 74.301 380.505 77.3372 380.309 78.595C379.695 80.6119 377.069 84.3724 369.411 84.3203C355.154 84.3203 347.867 78.0095 346.657 75.1468C345.896 73.3469 344.197 68.7581 344.668 64.5421Z" fill="url(#paint9_linear)"/>
<mask id="mask1" mask-type="alpha" maskUnits="userSpaceOnUse" x="344" y="46" width="40" height="39">
<path d="M344.668 64.5421C345.159 59.9445 350.942 49.9165 363.372 49.1879C364.217 49.1383 365.033 49.14 365.818 49.1879C367.752 48.8409 371.62 47.7176 371.62 46C372.503 49.227 371.251 50.0745 370.515 50.0949C378.156 52.6766 382.605 59.8578 383.033 64.0217C383.205 65.6915 382.533 70.0851 380.824 72.2191C380.883 74.301 380.505 77.3372 380.309 78.595C379.695 80.6119 377.069 84.3724 369.411 84.3203C355.154 84.3203 347.867 78.0095 346.657 75.1468C345.896 73.3469 344.197 68.7581 344.668 64.5421Z" fill="#68483E"/>
</mask>
<g mask="url(#mask1)">
<path d="M375.985 67.665C382.244 64.0215 382.762 66.7976 382.443 69.0313L381.264 72.3494L381.559 76.9687L378.908 82.5639L371.029 84.906C369.384 84.841 365.476 84.1123 362.119 83.5398C357.921 82.8241 350.705 78.4651 352.03 73.7157C353.091 69.9162 356.645 69.0096 358.289 69.0313C359.811 65.7566 365.676 61.1588 375.985 67.665Z" fill="#CFAEA3"/>
<path d="M375.985 67.665C382.244 64.0215 382.762 66.7976 382.443 69.0313L381.264 72.3494L381.559 76.9687L378.908 82.5639L371.029 84.906C369.384 84.841 365.476 84.1123 362.119 83.5398C357.921 82.8241 350.705 78.4651 352.03 73.7157C353.091 69.9162 356.645 69.0096 358.289 69.0313C359.811 65.7566 365.676 61.1588 375.985 67.665Z" fill="url(#paint10_linear)"/>
<path d="M362.217 70.2675L347.71 67.2747L348.299 66.6241L361.186 69.2916L362.217 70.2675Z" fill="#431B1B" fill-opacity="0.7"/>
<path d="M359.051 68.7061C359.714 70.5928 362.394 74.1711 367.814 73.3904C363.572 70.1114 360.204 68.9012 359.051 68.7061Z" fill="#724844"/>
</g>
<path d="M370.144 78.3955C372.653 78.3446 374.783 77.9067 374.783 77.8795C374.902 78.1541 375.204 78.5146 375.667 78.7677C373.546 81.2999 371.102 79.5747 370.144 78.3955Z" fill="#CE7676"/>
<path d="M370.144 78.3955C372.653 78.3446 374.783 77.9067 374.783 77.8795C374.902 78.1541 375.204 78.5146 375.667 78.7677C373.546 81.2999 371.102 79.5747 370.144 78.3955Z" fill="url(#paint11_linear)"/>
<path d="M377.066 74.2361C376.894 74.4313 376.374 74.8477 375.667 74.9518M375.667 74.9518C374.076 74.3793 374.047 73.9759 374.047 73.9759M375.667 74.9518C375.667 75.5807 375.49 77.0467 374.783 77.8795M374.783 77.8795C374.783 77.9067 372.653 78.3446 370.144 78.3955M374.783 77.8795C374.902 78.1541 375.204 78.5146 375.667 78.7677M362.191 74.2361C362.448 77.7911 366.661 78.4662 370.144 78.3955M370.144 78.3955C371.102 79.5747 373.546 81.2999 375.667 78.7677M375.667 78.7677C376.447 79.1943 377.685 79.3155 379.275 78.2048C379.823 77.7364 379.821 77.4458 379.592 77.2289" stroke="#552D26" stroke-width="3" stroke-linecap="round" stroke-linejoin="round"/>
<path d="M351.493 108.563C347.197 107.296 347.983 102.261 348.719 100C323.118 102.942 325.598 118.012 339.082 121.902C342.691 122.943 360.317 121.535 362.612 124.528C364.451 126.493 366.883 131.069 363.41 135.38C364.234 138.981 366.647 138.19 367.751 137.345C371.38 134.852 377.961 127.963 375.254 120.355C373.758 116.741 366.912 109.324 351.493 108.563Z" fill="#68483E"/>
<path d="M351.493 108.563C347.197 107.296 347.983 102.261 348.719 100C323.118 102.942 325.598 118.012 339.082 121.902C342.691 122.943 360.317 121.535 362.612 124.528C364.451 126.493 366.883 131.069 363.41 135.38C364.234 138.981 366.647 138.19 367.751 137.345C371.38 134.852 377.961 127.963 375.254 120.355C373.758 116.741 366.912 109.324 351.493 108.563Z" fill="url(#paint12_linear)"/>
<path d="M351.493 108.563C347.197 107.296 347.983 102.261 348.719 100C323.118 102.942 325.598 118.012 339.082 121.902C342.691 122.943 360.317 121.535 362.612 124.528C364.451 126.493 366.883 131.069 363.41 135.38C364.234 138.981 366.647 138.19 367.751 137.345C371.38 134.852 377.961 127.963 375.254 120.355C373.758 116.741 366.912 109.324 351.493 108.563Z" fill="url(#paint13_linear)"/>
<mask id="mask2" mask-type="alpha" maskUnits="userSpaceOnUse" x="329" y="100" width="47" height="39">
<path d="M351.527 108.563C347.231 107.296 348.017 102.261 348.753 100C323.153 102.942 325.632 118.012 339.117 121.902C342.725 122.943 360.351 121.535 362.646 124.528C364.485 126.493 366.917 131.069 363.445 135.38C364.269 138.981 366.681 138.19 367.785 137.345C371.414 134.852 377.996 127.963 375.288 120.355C373.793 116.741 366.946 109.324 351.527 108.563Z" fill="#68483E"/>
<path d="M351.527 108.563C347.231 107.296 348.017 102.261 348.753 100C323.153 102.942 325.632 118.012 339.117 121.902C342.725 122.943 360.351 121.535 362.646 124.528C364.485 126.493 366.917 131.069 363.445 135.38C364.269 138.981 366.681 138.19 367.785 137.345C371.414 134.852 377.996 127.963 375.288 120.355C373.793 116.741 366.946 109.324 351.527 108.563Z" fill="url(#paint14_linear)"/>
<path d="M351.527 108.563C347.231 107.296 348.017 102.261 348.753 100C323.153 102.942 325.632 118.012 339.117 121.902C342.725 122.943 360.351 121.535 362.646 124.528C364.485 126.493 366.917 131.069 363.445 135.38C364.269 138.981 366.681 138.19 367.785 137.345C371.414 134.852 377.996 127.963 375.288 120.355C373.793 116.741 366.946 109.324 351.527 108.563Z" fill="url(#paint15_linear)"/>
</mask>
<g mask="url(#mask2)">
<path d="M359.197 111.841C356.075 111.529 354.656 108.935 354.337 107.677L366.634 109.824C365.726 110.648 362.967 112.205 359.197 111.841Z" fill="#512D28"/>
<path d="M349.256 107.092C347.724 105.946 346.409 102.147 345.942 100.39L346.605 99.8699L348.667 100.13C349.035 101.149 349.668 103.969 349.256 107.092Z" fill="#512D28"/>
</g>
<path d="M377.215 91.9625C373.445 91.3899 372.109 93.5456 371.913 94.695C373.393 95.9367 375.278 97.8247 376.823 99.4445C377.089 96.1 379.073 99.6414 379.056 101.852C379.031 101.982 379.424 101.852 379.424 101.852C380.038 101.678 381.126 99.935 381.191 98.6338C381.314 96.1831 380.985 92.535 377.215 91.9625Z" fill="#CFAEA3"/>
<path d="M377.215 91.9625C373.445 91.3899 372.109 93.5456 371.913 94.695C373.393 95.9367 375.278 97.8247 376.823 99.4445C377.089 96.1 379.073 99.6414 379.056 101.852C379.031 101.982 379.424 101.852 379.424 101.852C380.038 101.678 381.126 99.935 381.191 98.6338C381.314 96.1831 380.985 92.535 377.215 91.9625Z" fill="url(#paint16_linear)"/>
<path d="M379.202 102.437C380.145 101.917 380.282 98.8807 380.233 97.4277C378.701 96.4908 377.337 97.3843 376.846 97.9481C377.508 98.6204 378.746 100.238 378.392 101.331C378.269 101.917 378.26 102.958 379.202 102.437Z" fill="#DEB2A3"/>
<path d="M379.202 102.437C380.145 101.917 380.282 98.8807 380.233 97.4277C378.701 96.4908 377.337 97.3843 376.846 97.9481C377.508 98.6204 378.746 100.238 378.392 101.331C378.269 101.917 378.26 102.958 379.202 102.437Z" fill="url(#paint17_linear)"/>
<path d="M376.847 100.681C375.964 101.149 374.466 98.23 373.828 96.7119L377.068 97.3625C377.363 98.2734 377.731 100.212 376.847 100.681Z" fill="#DDB2A3"/>
<path d="M376.847 100.681C375.964 101.149 374.466 98.23 373.828 96.7119L377.068 97.3625C377.363 98.2734 377.731 100.212 376.847 100.681Z" fill="url(#paint18_linear)"/>
<path d="M350.853 87.7686C348.496 84.4895 345.256 86.0987 343.931 87.3131C342.777 90.3927 341 96.5388 343.121 96.4867C345.772 96.4216 348.938 106.376 351.442 108.132C352.669 109.022 355.993 110.501 359.468 109.304C361.113 108.61 365.065 106.207 367.716 102.147C369.14 99.6963 371.133 94.691 367.716 94.2747C366.066 94.0144 361.359 98.5036 359.468 100.976C358.879 101.518 358.202 102.277 357.554 100.976C356.523 97.9397 353.209 91.0476 350.853 87.7686Z" fill="#68483E"/>
<path d="M350.853 87.7686C348.496 84.4895 345.256 86.0987 343.931 87.3131C342.777 90.3927 341 96.5388 343.121 96.4867C345.772 96.4216 348.938 106.376 351.442 108.132C352.669 109.022 355.993 110.501 359.468 109.304C361.113 108.61 365.065 106.207 367.716 102.147C369.14 99.6963 371.133 94.691 367.716 94.2747C366.066 94.0144 361.359 98.5036 359.468 100.976C358.879 101.518 358.202 102.277 357.554 100.976C356.523 97.9397 353.209 91.0476 350.853 87.7686Z" fill="url(#paint19_linear)"/>
<path d="M350.853 87.7686C348.496 84.4895 345.256 86.0987 343.931 87.3131C342.777 90.3927 341 96.5388 343.121 96.4867C345.772 96.4216 348.938 106.376 351.442 108.132C352.669 109.022 355.993 110.501 359.468 109.304C361.113 108.61 365.065 106.207 367.716 102.147C369.14 99.6963 371.133 94.691 367.716 94.2747C366.066 94.0144 361.359 98.5036 359.468 100.976C358.879 101.518 358.202 102.277 357.554 100.976C356.523 97.9397 353.209 91.0476 350.853 87.7686Z" fill="url(#paint20_linear)"/>
<path d="M350.853 87.7686C348.496 84.4895 345.256 86.0987 343.931 87.3131C342.777 90.3927 341 96.5388 343.121 96.4867C345.772 96.4216 348.938 106.376 351.442 108.132C352.669 109.022 355.993 110.501 359.468 109.304C361.113 108.61 365.065 106.207 367.716 102.147C369.14 99.6963 371.133 94.691 367.716 94.2747C366.066 94.0144 361.359 98.5036 359.468 100.976C358.879 101.518 358.202 102.277 357.554 100.976C356.523 97.9397 353.209 91.0476 350.853 87.7686Z" fill="url(#paint21_linear)"/>
<path d="M376.111 102.017C377.289 98.894 375.62 97.1157 374.638 96.6169L373.828 103.578C374.245 103.774 375.286 103.734 376.111 102.017Z" fill="#CFAEA3"/>
<path d="M376.111 102.017C377.289 98.894 375.62 97.1157 374.638 96.6169L373.828 103.578C374.245 103.774 375.286 103.734 376.111 102.017Z" fill="url(#paint22_linear)"/>
<path d="M370.883 93.6892C368.232 93.429 367.201 94.0795 366.538 94.5351C367.152 95.3375 368.482 97.3976 368.894 98.1783C369.307 98.9591 371.766 99.935 372.945 100.325C373.092 101.236 373.224 103.175 372.576 103.643C372.184 103.925 371.707 104.463 372.945 104.359C374.123 104.164 376.626 100.911 375.89 98.9591C375.325 97.3109 373.534 93.9494 370.883 93.6892Z" fill="#CFAEA3"/>
<path d="M370.883 93.6892C368.232 93.429 367.201 94.0795 366.538 94.5351C367.152 95.3375 368.482 97.3976 368.894 98.1783C369.307 98.9591 371.766 99.935 372.945 100.325C373.092 101.236 373.224 103.175 372.576 103.643C372.184 103.925 371.707 104.463 372.945 104.359C374.123 104.164 376.626 100.911 375.89 98.9591C375.325 97.3109 373.534 93.9494 370.883 93.6892Z" fill="url(#paint23_linear)"/>
<path d="M370.883 93.6892C368.232 93.429 367.201 94.0795 366.538 94.5351C367.152 95.3375 368.482 97.3976 368.894 98.1783C369.307 98.9591 371.766 99.935 372.945 100.325C373.092 101.236 373.224 103.175 372.576 103.643C372.184 103.925 371.707 104.463 372.945 104.359C374.123 104.164 376.626 100.911 375.89 98.9591C375.325 97.3109 373.534 93.9494 370.883 93.6892Z" fill="url(#paint24_linear)"/>
<path d="M370.883 93.6892C368.232 93.429 367.201 94.0795 366.538 94.5351C367.152 95.3375 368.482 97.3976 368.894 98.1783C369.307 98.9591 371.766 99.935 372.945 100.325C373.092 101.236 373.224 103.175 372.576 103.643C372.184 103.925 371.707 104.463 372.945 104.359C374.123 104.164 376.626 100.911 375.89 98.9591C375.325 97.3109 373.534 93.9494 370.883 93.6892Z" fill="url(#paint25_linear)"/>
<path d="M372.014 102.481C372.516 101.641 371.665 100.207 371.177 99.5943C371.456 99.1568 372.223 98.6625 373.06 100.185C374.106 102.088 372.362 104.581 371.665 104.187C371.432 104.078 371.177 103.584 372.014 102.481Z" fill="#CFAEA3"/>
<path d="M372.014 102.481C372.516 101.641 371.665 100.207 371.177 99.5943C371.456 99.1568 372.223 98.6625 373.06 100.185C374.106 102.088 372.362 104.581 371.665 104.187C371.432 104.078 371.177 103.584 372.014 102.481Z" fill="url(#paint26_linear)"/>
<path d="M372.014 102.481C372.516 101.641 371.665 100.207 371.177 99.5943C371.456 99.1568 372.223 98.6625 373.06 100.185C374.106 102.088 372.362 104.581 371.665 104.187C371.432 104.078 371.177 103.584 372.014 102.481Z" fill="url(#paint27_linear)"/>
<rect width="14.2088" height="0.728019" transform="matrix(0.980518 0.196427 -0.248577 0.968612 347.72 110.513)" fill="#260A0A"/>
<path d="M381.163 68.7061H362.425C361.32 68.7061 360.484 69.6422 361.098 70.5601C362.223 72.2398 364.796 74.041 369.114 74.041C373.238 74.041 375.003 72.287 375.322 70.8254C375.813 72.3114 377.509 73.6756 379.497 73.6756C380.807 73.6756 382 72.2794 382.717 70.8251C383.245 69.7556 382.356 68.7061 381.163 68.7061Z" fill="#260A0A"/>
<path d="M381.163 68.7061H362.425C361.32 68.7061 360.484 69.6422 361.098 70.5601C362.223 72.2398 364.796 74.041 369.114 74.041C373.238 74.041 375.003 72.287 375.322 70.8254C375.813 72.3114 377.509 73.6756 379.497 73.6756C380.807 73.6756 382 72.2794 382.717 70.8251C383.245 69.7556 382.356 68.7061 381.163 68.7061Z" fill="url(#paint28_linear)"/>
<path d="M341.647 70.5279C341.647 68.1255 342.636 66.9013 343.932 66.3306C346.38 65.2521 348.044 68.2967 348.4 70.9487C348.752 73.5708 347.673 75.8248 345.262 74.7373C343.367 73.8828 341.647 72.4272 341.647 70.5279Z" fill="#CFAEA3"/>
<path d="M341.647 70.5279C341.647 68.1255 342.636 66.9013 343.932 66.3306C346.38 65.2521 348.044 68.2967 348.4 70.9487C348.752 73.5708 347.673 75.8248 345.262 74.7373C343.367 73.8828 341.647 72.4272 341.647 70.5279Z" fill="url(#paint29_linear)"/>
<path d="M347.097 68.3807C347.054 69.0362 347.024 70.0011 347.057 70.9181M347.613 73.4554C347.249 73.1922 347.1 72.0946 347.057 70.9181M347.057 70.9181L344.226 69.5518" stroke="#5D362D" stroke-width="3" stroke-linecap="round" stroke-linejoin="round"/>
<path d="M121.552 11.1334L123.346 11.2031L123.448 16.873L121.332 16.7908L121.552 11.1334Z" fill="#7D8598"/>
<ellipse cx="123.356" cy="14.0351" rx="2.83585" ry="0.727031" transform="rotate(88.663 123.356 14.0351)" fill="#B5BDD2"/>
<ellipse cx="123.415" cy="13.9874" rx="2.12751" ry="0.545432" transform="rotate(88.663 123.415 13.9874)" fill="#E3FDFE"/>
<ellipse cx="123.415" cy="13.9874" rx="2.12751" ry="0.545432" transform="rotate(88.663 123.415 13.9874)" fill="url(#paint30_linear)"/>
<path d="M69.5449 124.865C71.0465 124.391 71.8499 123.087 72.064 122.495C72.953 122.099 75.5017 121.724 78.5838 123.384C77.2799 124.095 75.0111 126.94 74.0397 128.274C72.9201 128.241 70.4538 127.513 69.5449 124.865Z" fill="#FFE0CD"/>
<path d="M69.5449 124.865C71.0465 124.391 71.8499 123.087 72.064 122.495C72.953 122.099 75.5017 121.724 78.5838 123.384C77.2799 124.095 75.0111 126.94 74.0397 128.274C72.9201 128.241 70.4538 127.513 69.5449 124.865Z" fill="url(#paint31_linear)"/>
<mask id="mask3" mask-type="alpha" maskUnits="userSpaceOnUse" x="69" y="122" width="10" height="7">
<path d="M69.5449 124.865C71.0465 124.391 71.8499 123.087 72.064 122.495C72.953 122.099 75.5017 121.724 78.5838 123.384C77.2799 124.095 75.0111 126.94 74.0397 128.274C72.9201 128.241 70.4538 127.513 69.5449 124.865Z" fill="#FFE0CD"/>
<path d="M69.5449 124.865C71.0465 124.391 71.8499 123.087 72.064 122.495C72.953 122.099 75.5017 121.724 78.5838 123.384C77.2799 124.095 75.0111 126.94 74.0397 128.274C72.9201 128.241 70.4538 127.513 69.5449 124.865Z" fill="url(#paint32_linear)"/>
</mask>
<g mask="url(#mask3)">
<path d="M76.9055 126.446C73.5073 126.209 71.604 124.207 71.0771 123.235L71.6699 121.655L76.5104 123.235C77.1031 123.499 78.0119 124.51 76.9055 126.446Z" fill="#AE5858"/>
</g>
<path d="M77.7438 125.359C101.966 107.934 111.232 96.6292 113.109 92.5625C109.487 90.0434 101.186 84.8572 94.7844 89.0062C94.7844 93.9851 78.9457 112.847 71.0264 121.655C71.5697 122.89 73.6738 125.359 77.7438 125.359Z" fill="#8BD0E2"/>
<path d="M77.7438 125.359C101.966 107.934 111.232 96.6292 113.109 92.5625C109.487 90.0434 101.186 84.8572 94.7844 89.0062C94.7844 93.9851 78.9457 112.847 71.0264 121.655C71.5697 122.89 73.6738 125.359 77.7438 125.359Z" fill="url(#paint33_linear)"/>
<path d="M77.7438 125.359C101.966 107.934 111.232 96.6292 113.109 92.5625C109.487 90.0434 101.186 84.8572 94.7844 89.0062C94.7844 93.9851 78.9457 112.847 71.0264 121.655C71.5697 122.89 73.6738 125.359 77.7438 125.359Z" fill="url(#paint34_linear)"/>
<mask id="mask4" mask-type="alpha" maskUnits="userSpaceOnUse" x="71" y="87" width="43" height="39">
<path d="M77.7438 125.334C101.966 107.908 111.232 96.6038 113.109 92.5371C109.487 90.0181 101.186 84.8319 94.7844 88.9809C94.7844 93.9597 78.9457 112.821 71.0264 121.63C71.5697 122.864 73.6738 125.334 77.7438 125.334Z" fill="#8BD0E2"/>
<path d="M77.7438 125.334C101.966 107.908 111.232 96.6038 113.109 92.5371C109.487 90.0181 101.186 84.8319 94.7844 88.9809C94.7844 93.9597 78.9457 112.821 71.0264 121.63C71.5697 122.864 73.6738 125.334 77.7438 125.334Z" fill="url(#paint35_linear)"/>
<path d="M77.7438 125.334C101.966 107.908 111.232 96.6038 113.109 92.5371C109.487 90.0181 101.186 84.8319 94.7844 88.9809C94.7844 93.9597 78.9457 112.821 71.0264 121.63C71.5697 122.864 73.6738 125.334 77.7438 125.334Z" fill="url(#paint36_linear)"/>
</mask>
<g mask="url(#mask4)">
<path d="M101.157 93.7972C93.1772 91.6052 92.8109 93.5133 91.8213 94.143L93.6982 90.4385C93.4348 90.0269 91.6731 89.4901 101.157 93.7972Z" fill="#5E94C6"/>
</g>
<path d="M113.554 90.9819C112.131 85.2918 100.02 74.0566 94.1423 69.1502C85.8442 73.1807 83.4734 81.9265 83.3252 85.7956L94.1423 90.9819C100.333 94.3077 112.882 98.9638 113.554 90.9819Z" fill="#8BD0E2"/>
<path d="M113.554 90.9819C112.131 85.2918 100.02 74.0566 94.1423 69.1502C85.8442 73.1807 83.4734 81.9265 83.3252 85.7956L94.1423 90.9819C100.333 94.3077 112.882 98.9638 113.554 90.9819Z" fill="url(#paint37_linear)"/>
<path d="M64.8528 126.397C65.8802 126.239 67.8 125.771 68.689 125.261C69.5189 127.869 72.1959 128.718 73.4307 128.817C73.1838 130.183 72.759 133.242 73.0356 134.546C73.3122 135.85 77.1478 138.643 78.6334 139.881C78.9298 140.128 78.7816 140.375 78.5017 141.017C71.6361 141.56 66.6803 138.053 66.6803 136.325C66.6803 134.942 66.4005 133.723 66.2688 133.262C65.3303 131.994 63.8255 128.372 64.8528 126.397Z" fill="#896957"/>
<path d="M65.8899 126.199C66.9172 126.041 68.9522 124.981 69.8413 124.47C70.6711 127.078 73.3482 127.928 74.583 128.027C74.336 129.393 73.9113 132.452 74.1879 133.756C74.4645 135.06 77.1679 138.218 78.4851 139.634C78.6688 139.832 79.0778 140.059 78.4851 140.572C71.6194 141.116 67.8162 137.313 67.8162 135.584C67.8162 134.201 67.5528 132.933 67.4211 132.472C66.4826 131.204 64.8625 128.175 65.8899 126.199Z" fill="#663F2A"/>
<path d="M65.8899 126.199C66.9172 126.041 68.9522 124.981 69.8413 124.47C70.6711 127.078 73.3482 127.928 74.583 128.027C74.336 129.393 73.9113 132.452 74.1879 133.756C74.4645 135.06 77.1679 138.218 78.4851 139.634C78.6688 139.832 79.0778 140.059 78.4851 140.572C71.6194 141.116 67.8162 137.313 67.8162 135.584C67.8162 134.201 67.5528 132.933 67.4211 132.472C66.4826 131.204 64.8625 128.175 65.8899 126.199Z" fill="url(#paint38_linear)"/>
<path d="M26.0137 134.194C27.5152 133.719 28.3187 132.415 28.5327 131.823C29.4218 131.428 31.9705 131.052 35.0526 132.712C33.7486 133.423 31.4798 136.268 30.5084 137.602C29.3889 137.569 26.9225 136.841 26.0137 134.194Z" fill="#FFE0CD"/>
<path d="M26.0137 134.194C27.5152 133.719 28.3187 132.415 28.5327 131.823C29.4218 131.428 31.9705 131.052 35.0526 132.712C33.7486 133.423 31.4798 136.268 30.5084 137.602C29.3889 137.569 26.9225 136.841 26.0137 134.194Z" fill="url(#paint39_linear)"/>
<mask id="mask5" mask-type="alpha" maskUnits="userSpaceOnUse" x="26" y="131" width="10" height="7">
<path d="M26.0137 134.194C27.5152 133.719 28.3187 132.415 28.5327 131.823C29.4218 131.428 31.9705 131.052 35.0526 132.712C33.7486 133.423 31.4798 136.268 30.5084 137.602C29.3889 137.569 26.9225 136.841 26.0137 134.194Z" fill="#FFE0CD"/>
<path d="M26.0137 134.194C27.5152 133.719 28.3187 132.415 28.5327 131.823C29.4218 131.428 31.9705 131.052 35.0526 132.712C33.7486 133.423 31.4798 136.268 30.5084 137.602C29.3889 137.569 26.9225 136.841 26.0137 134.194Z" fill="url(#paint40_linear)"/>
</mask>
<g mask="url(#mask5)">
<path d="M31.4136 137.016C27.4622 136.147 26.9353 133.756 27.1658 132.67H30.8209C31.1173 132.67 31.6507 133.539 31.4136 137.016Z" fill="#AE5858"/>
</g>
<path d="M88.3155 80.9551C89.6985 78.7818 92.2834 77.4482 93.403 77.0531V68.3105C88.4637 67.8166 75.3647 70.3356 62.483 84.3632C60.6225 88.6769 50.9547 104.12 27.167 131.385C27.5621 135.455 30.5586 136.67 32.0075 136.769C38.2639 132.538 53.8985 121.201 66.385 109.702C81.9932 95.3285 86.5867 83.6717 88.3155 80.9551Z" fill="#8BD0E2"/>
<path d="M88.3155 80.9551C89.6985 78.7818 92.2834 77.4482 93.403 77.0531V68.3105C88.4637 67.8166 75.3647 70.3356 62.483 84.3632C60.6225 88.6769 50.9547 104.12 27.167 131.385C27.5621 135.455 30.5586 136.67 32.0075 136.769C38.2639 132.538 53.8985 121.201 66.385 109.702C81.9932 95.3285 86.5867 83.6717 88.3155 80.9551Z" fill="url(#paint41_linear)"/>
<path d="M88.3155 80.9551C89.6985 78.7818 92.2834 77.4482 93.403 77.0531V68.3105C88.4637 67.8166 75.3647 70.3356 62.483 84.3632C60.6225 88.6769 50.9547 104.12 27.167 131.385C27.5621 135.455 30.5586 136.67 32.0075 136.769C38.2639 132.538 53.8985 121.201 66.385 109.702C81.9932 95.3285 86.5867 83.6717 88.3155 80.9551Z" fill="url(#paint42_linear)"/>
<mask id="mask6" mask-type="alpha" maskUnits="userSpaceOnUse" x="27" y="68" width="67" height="69">
<path d="M88.3155 80.9551C89.6985 78.7818 92.2834 77.4482 93.403 77.0531V68.3105C88.4637 67.8166 75.3647 70.3356 62.483 84.3632C60.6225 88.6769 50.9547 104.12 27.167 131.385C27.5621 135.455 30.5586 136.67 32.0075 136.769C38.2639 132.538 53.8985 121.201 66.385 109.702C81.9932 95.3285 86.5867 83.6717 88.3155 80.9551Z" fill="#8BD0E2"/>
<path d="M88.3155 80.9551C89.6985 78.7818 92.2834 77.4482 93.403 77.0531V68.3105C88.4637 67.8166 75.3647 70.3356 62.483 84.3632C60.6225 88.6769 50.9547 104.12 27.167 131.385C27.5621 135.455 30.5586 136.67 32.0075 136.769C38.2639 132.538 53.8985 121.201 66.385 109.702C81.9932 95.3285 86.5867 83.6717 88.3155 80.9551Z" fill="url(#paint43_linear)"/>
</mask>
<g mask="url(#mask6)">
<path d="M75.5711 101.009C64.3491 97.887 52.0601 101.124 47.3184 103.133L51.3686 95.773L79.9671 93.4022C79.6049 94.4394 78.2186 97.4129 75.5711 101.009Z" fill="#5E94C6"/>
<path d="M82.289 84.4621C83.672 73.6747 87.0801 70.418 88.6113 70.1381H80.4121C79.6218 70.1381 78.8908 73.0029 82.289 84.4621Z" fill="#5E94C6"/>
</g>
<path d="M94.4898 70.0886C88.2173 69.2687 77.9701 75.5579 74.2881 77.6458C77.5624 51.2255 95.8047 41.5457 104.517 40.0083C101.607 46.2148 96.5807 59.065 94.4898 70.0886Z" fill="#F89082"/>
<path d="M94.4898 70.0886C88.2173 69.2687 77.9701 75.5579 74.2881 77.6458C77.5624 51.2255 95.8047 41.5457 104.517 40.0083C101.607 46.2148 96.5807 59.065 94.4898 70.0886Z" fill="url(#paint44_linear)"/>
<path d="M96.2189 58.3331C94.4013 56.9106 93.2883 53.1633 92.959 51.4675L97.0092 50.3315C98.3099 52.0932 99.9728 56.1599 96.2189 58.3331Z" fill="#B04E4E"/>
<path d="M134.899 56.5841C136.674 56.9463 140.408 57.1274 142.053 57.1727C132.164 52.7896 131.744 55.3464 132.771 57.1727C132.74 56.8255 133.124 56.2218 134.899 56.5841Z" fill="#D6958D"/>
<path d="M144.589 57.4445C143.103 58.0604 137.178 56.1314 134.4 55.09C134.566 54.7126 135.46 53.967 137.706 54.0032C138.865 54.9088 143.321 56.071 145.404 56.5389C145.449 56.705 145.349 57.1185 144.589 57.4445Z" fill="#FFE0CD"/>
<path d="M144.589 57.4445C143.103 58.0604 137.178 56.1314 134.4 55.09C134.566 54.7126 135.46 53.967 137.706 54.0032C138.865 54.9088 143.321 56.071 145.404 56.5389C145.449 56.705 145.349 57.1185 144.589 57.4445Z" fill="url(#paint45_linear)"/>
<path d="M134.266 59.7538C132.854 59.464 129.119 56.7955 127.429 55.4975C126.849 52.8169 129.934 52.0561 131.549 52.0109L135.308 52.5089C137.255 52.841 141.71 53.5051 143.956 53.5051C144.636 53.5051 145.36 53.8493 144.998 54.3202C144.545 54.9088 139.338 54.9088 135.308 55.1805C132.084 55.3978 132.455 56.2672 133.044 56.6748C134.04 57.8219 135.679 60.0436 134.266 59.7538Z" fill="#FFE0CD"/>
<path d="M134.266 59.7538C132.854 59.464 129.119 56.7955 127.429 55.4975C126.849 52.8169 129.934 52.0561 131.549 52.0109L135.308 52.5089C137.255 52.841 141.71 53.5051 143.956 53.5051C144.636 53.5051 145.36 53.8493 144.998 54.3202C144.545 54.9088 139.338 54.9088 135.308 55.1805C132.084 55.3978 132.455 56.2672 133.044 56.6748C134.04 57.8219 135.679 60.0436 134.266 59.7538Z" fill="url(#paint46_linear)"/>
<path d="M109.159 35.4641C105.366 31.1966 100.565 28.8455 98.6387 28.2034L99.1326 43.2682C99.5607 44.289 105.791 48.3755 127.287 56.5549C127.919 53.1567 131.172 52.2413 132.72 52.2084C126.447 48.4051 112.953 39.7317 109.159 35.4641Z" fill="#906953"/>
<path d="M109.159 35.4641C105.366 31.1966 100.565 28.8455 98.6387 28.2034L99.1326 43.2682C99.5607 44.289 105.791 48.3755 127.287 56.5549C127.919 53.1567 131.172 52.2413 132.72 52.2084C126.447 48.4051 112.953 39.7317 109.159 35.4641Z" fill="url(#paint47_linear)"/>
<path d="M99.4804 33.3897C102.568 30.498 106.494 30.1107 108.072 30.2784C104.102 26.5816 102.865 22.1191 102.742 20.3499C98.5156 21.6768 97.0178 28.3385 99.4804 33.3897Z" fill="#F3C3B1"/>
<path d="M99.4804 33.3897C102.568 30.498 106.494 30.1107 108.072 30.2784C104.102 26.5816 102.865 22.1191 102.742 20.3499C98.5156 21.6768 97.0178 28.3385 99.4804 33.3897Z" fill="url(#paint48_linear)"/>
<mask id="mask7" mask-type="alpha" maskUnits="userSpaceOnUse" x="98" y="20" width="11" height="14">
<path d="M99.4817 33.3897C102.58 30.4877 106.521 30.0989 108.104 30.2673C104.12 26.5572 102.878 22.0787 102.755 20.3032C98.5135 21.6348 97.0104 28.3204 99.4817 33.3897Z" fill="#F3C3B1"/>
<path d="M99.4817 33.3897C102.58 30.4877 106.521 30.0989 108.104 30.2673C104.12 26.5572 102.878 22.0787 102.755 20.3032C98.5135 21.6348 97.0104 28.3204 99.4817 33.3897Z" fill="url(#paint49_linear)"/>
</mask>
<g mask="url(#mask7)">
<path d="M106.902 32.0425C104.285 29.9641 102.829 26.4936 102.428 25.0182L107.576 29.0596C108.089 29.3803 108.673 30.426 106.902 32.0425Z" fill="#AE5858"/>
<path d="M101.609 27.3276C100.762 25.942 101.641 23.9437 102.186 23.4305L101.609 22.3721L98.4814 24.2484C99.171 25.0663 100.762 27.3276 101.609 27.3276Z" fill="#AE5858"/>
</g>
<path d="M117.971 22.8602C122.942 21.6044 122.627 16.1193 121.849 13.5337C119.31 15.9654 114.681 22.1122 116.475 27.2464C117.073 29.0563 119.808 28.4315 121.101 27.8928C119.435 27.6774 116.475 26.3692 117.971 22.8602Z" fill="#8E3622"/>
<path d="M117.971 22.8602C122.942 21.6044 122.627 16.1193 121.849 13.5337C119.31 15.9654 114.681 22.1122 116.475 27.2464C117.073 29.0563 119.808 28.4315 121.101 27.8928C119.435 27.6774 116.475 26.3692 117.971 22.8602Z" fill="url(#paint50_linear)"/>
<path d="M118.198 23.5073C121.369 20.4103 121.424 14.29 121.055 11.6169C110.325 8.37242 105.153 12.7845 103.908 15.396C102.526 14.6279 100.405 14.3821 99.5296 18.4377C99.3007 19.4977 99.8061 21.3873 101.466 22.2629C100.468 24.5468 105.457 29.0433 108.643 31.9385C109.371 32.6 110.473 32.65 111.251 32.0479L115.616 28.669C116.721 28.2227 117.303 26.7008 117.439 25.5176C117.513 24.869 117.731 24.1633 118.198 23.5073Z" fill="#FFE0CD"/>
<path d="M118.198 23.5073C121.369 20.4103 121.424 14.29 121.055 11.6169C110.325 8.37242 105.153 12.7845 103.908 15.396C102.526 14.6279 100.405 14.3821 99.5296 18.4377C99.3007 19.4977 99.8061 21.3873 101.466 22.2629C100.468 24.5468 105.457 29.0433 108.643 31.9385C109.371 32.6 110.473 32.65 111.251 32.0479L115.616 28.669C116.721 28.2227 117.303 26.7008 117.439 25.5176C117.513 24.869 117.731 24.1633 118.198 23.5073Z" fill="url(#paint51_linear)"/>
<mask id="mask8" mask-type="alpha" maskUnits="userSpaceOnUse" x="99" y="10" width="23" height="23">
<path d="M118.175 23.519C121.348 20.4233 121.404 14.3055 121.035 11.6336C110.297 8.39044 105.122 12.8006 103.877 15.4111C102.493 14.6434 100.372 14.3976 99.4954 18.4516C99.2664 19.5111 99.7722 21.3999 101.433 22.2752C100.446 24.5331 105.318 28.9546 108.509 31.851L108.616 31.9481C109.344 32.6086 110.445 32.6587 111.223 32.0574L115.592 28.6786C116.697 28.2326 117.279 26.7099 117.416 25.5265C117.491 24.8787 117.709 24.1741 118.175 23.519Z" fill="#FFE0CD"/>
<path d="M118.175 23.519C121.348 20.4233 121.404 14.3055 121.035 11.6336C110.297 8.39044 105.122 12.8006 103.877 15.4111C102.493 14.6434 100.372 14.3976 99.4954 18.4516C99.2664 19.5111 99.7722 21.3999 101.433 22.2752C100.446 24.5331 105.318 28.9546 108.509 31.851L108.616 31.9481C109.344 32.6086 110.445 32.6587 111.223 32.0574L115.592 28.6786C116.697 28.2326 117.279 26.7099 117.416 25.5265C117.491 24.8787 117.709 24.1741 118.175 23.519Z" fill="url(#paint52_linear)"/>
</mask>
<g mask="url(#mask8)">
<path d="M115.948 17.0318C117.95 17.1088 120.791 15.5243 121.962 14.7224L121.337 13.3753L105.364 17.3686C105.251 18.1223 105.768 20.2842 108.731 22.9015C107.461 21.2079 107.368 19.5657 107.48 18.9563C109.309 19.261 113.562 19.3027 115.948 17.0318Z" fill="#AE5858"/>
</g>
<ellipse cx="115.715" cy="22.6221" rx="0.460297" ry="2.07134" transform="rotate(42.1573 115.715 22.6221)" fill="#340505"/>
<path d="M118.103 21.2951C117.66 21.4203 116.672 21.4531 116.258 20.5827C115.844 19.7122 114.706 19.3583 114.189 19.2902" stroke="#340505" stroke-width="4.5" stroke-linecap="round" stroke-linejoin="round"/>
<path d="M113.999 28.0644C113.131 27.4398 110.977 26.378 109.303 27.1275C107.629 27.877 110.248 28.7827 111.767 29.1418" stroke="#340505" stroke-width="4.5" stroke-linecap="round" stroke-linejoin="round"/>
<path d="M121.947 13.9235C120.639 15.8169 117.405 16.414 115.952 16.4759C107.994 15.7333 104.037 19.2294 103.053 21.0702C101.751 22.5243 99.6009 25.878 101.418 27.6601C93.3149 26.0637 92.217 20.6883 94.0598 18.1001C92.4135 19.8894 92.787 21.4301 93.0377 22.4648L93.0436 22.4889C92.6197 22.2259 91.3074 20.5226 90.8351 16.4759C89.9721 5.80214 100.305 0.881066 104.846 0.28089C109.387 -0.319286 110.99 0.110445 113.388 0.927217C114.618 1.3462 117.587 2.46081 119.085 4.73477C120.584 7.00874 123.255 12.03 121.947 13.9235Z" fill="#8E3622"/>
<path d="M121.947 13.9235C120.639 15.8169 117.405 16.414 115.952 16.4759C107.994 15.7333 104.037 19.2294 103.053 21.0702C101.751 22.5243 99.6009 25.878 101.418 27.6601C93.3149 26.0637 92.217 20.6883 94.0598 18.1001C92.4135 19.8894 92.787 21.4301 93.0377 22.4648L93.0436 22.4889C92.6197 22.2259 91.3074 20.5226 90.8351 16.4759C89.9721 5.80214 100.305 0.881066 104.846 0.28089C109.387 -0.319286 110.99 0.110445 113.388 0.927217C114.618 1.3462 117.587 2.46081 119.085 4.73477C120.584 7.00874 123.255 12.03 121.947 13.9235Z" fill="url(#paint53_linear)"/>
<path d="M105.339 17.9851C111.901 20.366 118.963 14.9159 121.605 12.0792C119.024 9.43783 112.865 10.0175 110.177 10.4515C108.196 11.1181 104.454 13.558 105.339 17.9851Z" fill="#8E3622"/>
<path d="M105.339 17.9851C111.901 20.366 118.963 14.9159 121.605 12.0792C119.024 9.43783 112.865 10.0175 110.177 10.4515C108.196 11.1181 104.454 13.558 105.339 17.9851Z" fill="url(#paint54_linear)"/>
<mask id="mask9" mask-type="alpha" maskUnits="userSpaceOnUse" x="105" y="10" width="17" height="9">
<path d="M105.351 17.9866C111.896 20.3597 118.941 14.9275 121.576 12.1001C119.002 9.46739 112.858 10.0452 110.177 10.4778C108.2 11.1421 104.468 13.574 105.351 17.9866Z" fill="#8E3622"/>
<path d="M105.351 17.9866C111.896 20.3597 118.941 14.9275 121.576 12.1001C119.002 9.46739 112.858 10.0452 110.177 10.4778C108.2 11.1421 104.468 13.574 105.351 17.9866Z" fill="url(#paint55_linear)"/>
</mask>
<g mask="url(#mask9)">
<path d="M111.81 10.3442C112.178 11.6271 113.773 13.7505 117.198 11.98C114.927 10.0555 112.66 10.0876 111.81 10.3442Z" fill="#71251B"/>
</g>
<path d="M109.654 23.4123C104.347 20.1007 108.395 13.3089 111.036 10.7179C107.756 10.2027 104.863 13.8915 103.896 15.1334C103.359 17.617 103.795 22.3084 109.654 23.4123Z" fill="#8E3622"/>
<path d="M109.654 23.4123C104.347 20.1007 108.395 13.3089 111.036 10.7179C107.756 10.2027 104.863 13.8915 103.896 15.1334C103.359 17.617 103.795 22.3084 109.654 23.4123Z" fill="url(#paint56_linear)"/>
<path d="M122.388 12.8316C112.257 7.24417 105.579 13.4516 103.622 16.7321L103.346 16.9134C103.071 16.8983 102.227 17.3126 102.887 16.3692C107.476 6.61834 119.727 9.11262 122.296 11.1989C122.434 11.6524 122.617 12.2874 122.388 12.8316Z" fill="#460C0C"/>
<path d="M122.388 12.8316C112.257 7.24417 105.579 13.4516 103.622 16.7321L103.346 16.9134C103.071 16.8983 102.227 17.3126 102.887 16.3692C107.476 6.61834 119.727 9.11262 122.296 11.1989C122.434 11.6524 122.617 12.2874 122.388 12.8316Z" fill="url(#paint57_linear)"/>
<ellipse cx="116.193" cy="9.71581" rx="3.77443" ry="2.89987" transform="rotate(4.83217 116.193 9.71581)" fill="#7D8598"/>
<path d="M112.418 9.68104V8.49561H119.926V9.68104H112.418Z" fill="#7D8598"/>
<ellipse cx="116.193" cy="8.48754" rx="3.77443" ry="2.89987" transform="rotate(4.83217 116.193 8.48754)" fill="#B5BDD2"/>
<ellipse cx="116.221" cy="8.41873" rx="3.23753" ry="2.48737" transform="rotate(4.83217 116.221 8.41873)" fill="#E3FDFE"/>
<ellipse cx="116.221" cy="8.41873" rx="3.23753" ry="2.48737" transform="rotate(4.83217 116.221 8.41873)" fill="url(#paint58_linear)"/>
<path d="M83.3259 80.4117C84.1557 64.2108 91.8379 50.7101 95.5753 45.9848C95.9705 45.5896 96.5237 40.1071 95.5753 25.0916C85.0546 27.907 71.7679 56.2915 67.4213 71.4716C60.7204 79.0616 46.2416 95.526 41.9346 100.663C62.8377 95.526 75.2748 97.9956 78.8805 99.8726C80.066 97.5511 82.6146 90.4089 83.3259 80.4117Z" fill="#99684D"/>
<path d="M83.3259 80.4117C84.1557 64.2108 91.8379 50.7101 95.5753 45.9848C95.9705 45.5896 96.5237 40.1071 95.5753 25.0916C85.0546 27.907 71.7679 56.2915 67.4213 71.4716C60.7204 79.0616 46.2416 95.526 41.9346 100.663C62.8377 95.526 75.2748 97.9956 78.8805 99.8726C80.066 97.5511 82.6146 90.4089 83.3259 80.4117Z" fill="url(#paint59_linear)"/>
<mask id="mask10" mask-type="alpha" maskUnits="userSpaceOnUse" x="41" y="25" width="56" height="76">
<path d="M83.3259 80.4117C84.1557 64.2108 91.8379 50.7101 95.5753 45.9848C95.9705 45.5896 96.5237 40.1071 95.5753 25.0916C85.0546 27.907 71.7679 56.2915 67.4213 71.4716C60.7204 79.0616 46.2416 95.526 41.9346 100.663C62.8377 95.526 75.2748 97.9956 78.8805 99.8726C80.066 97.5511 82.6146 90.4089 83.3259 80.4117Z" fill="#99684D"/>
<path d="M83.3259 80.4117C84.1557 64.2108 91.8379 50.7101 95.5753 45.9848C95.9705 45.5896 96.5237 40.1071 95.5753 25.0916C85.0546 27.907 71.7679 56.2915 67.4213 71.4716C60.7204 79.0616 46.2416 95.526 41.9346 100.663C62.8377 95.526 75.2748 97.9956 78.8805 99.8726C80.066 97.5511 82.6146 90.4089 83.3259 80.4117Z" fill="url(#paint60_linear)"/>
</mask>
<g mask="url(#mask10)">
<path d="M93.551 52.9986C91.5758 50.8277 91.2736 43.8368 90.8344 40.0083L92.4644 40.0082C94.2743 42.7425 96.3272 48.2287 93.551 52.9986Z" fill="#6D3836"/>
<path d="M59.4196 93.7478C63.2129 92.2068 66.7627 84.3467 68.0633 80.6093L49.8867 89.6482L55.0236 93.7478C55.5504 94.1265 57.1672 94.6567 59.4196 93.7478Z" fill="#5B2424"/>
<circle cx="84.4622" cy="63.1241" r="0.790288" fill="#B89985"/>
<circle cx="81.8928" cy="73.8919" r="0.790288" fill="#AD8A82"/>
<circle cx="80.2141" cy="86.6353" r="0.790288" fill="#B1938C"/>
</g>
<path d="M99.9718 41.984C93.768 57.5921 79.0785 67.8494 72.5093 71.027C71.1756 71.027 68.4294 70.3652 68.1133 67.7178C72.5389 73.0127 95.3782 48.5533 98.4406 41.984C98.0125 41.0619 97.7194 39.7711 99.9718 41.984Z" fill="#6B4C4C"/>
<path d="M99.9718 41.984C93.768 57.5921 79.0785 67.8494 72.5093 71.027C71.1756 71.027 68.4294 70.3652 68.1133 67.7178C72.5389 73.0127 95.3782 48.5533 98.4406 41.984C98.0125 41.0619 97.7194 39.7711 99.9718 41.984Z" fill="url(#paint61_linear)"/>
<path d="M89.6973 70.2368C96.0986 54.7472 108.104 40.7328 113.307 35.6617C116.073 36.1359 117.094 38.8888 117.259 40.2059C114.591 43.7128 108.101 51.5169 103.478 54.678C98.8547 57.8392 95.7561 68.08 94.7847 72.8053C93.0889 73.3321 89.6973 73.556 89.6973 70.2368Z" fill="#D9D4C8"/>
<path d="M89.6973 70.2368C96.0986 54.7472 108.104 40.7328 113.307 35.6617C116.073 36.1359 117.094 38.8888 117.259 40.2059C114.591 43.7128 108.101 51.5169 103.478 54.678C98.8547 57.8392 95.7561 68.08 94.7847 72.8053C93.0889 73.3321 89.6973 73.556 89.6973 70.2368Z" fill="url(#paint62_linear)"/>
<mask id="mask11" mask-type="alpha" maskUnits="userSpaceOnUse" x="89" y="35" width="29" height="39">
<path d="M89.6973 70.2368C96.0986 54.7472 108.104 40.7328 113.307 35.6617C116.073 36.1359 117.094 38.8888 117.259 40.2059C114.591 43.7128 108.101 51.5169 103.478 54.678C98.8547 57.8392 95.7561 68.08 94.7847 72.8053C93.0889 73.3321 89.6973 73.556 89.6973 70.2368Z" fill="#D9D4C8"/>
<path d="M89.6973 70.2368C96.0986 54.7472 108.104 40.7328 113.307 35.6617C116.073 36.1359 117.094 38.8888 117.259 40.2059C114.591 43.7128 108.101 51.5169 103.478 54.678C98.8547 57.8392 95.7561 68.08 94.7847 72.8053C93.0889 73.3321 89.6973 73.556 89.6973 70.2368Z" fill="url(#paint63_linear)"/>
</mask>
<g mask="url(#mask11)">
<path d="M90.0925 69.4465C93.9649 67.1547 97.9625 63.5852 99.4772 62.087L100.07 59.321L94.0934 61.0497C92.1341 62.4492 88.591 66.0878 90.0925 69.4465Z" fill="#AE917C"/>
</g>
<path d="M118.741 46.4294C118.82 43.3078 116.074 42.0335 114.691 41.7865C111.382 45.1288 103.953 51.9911 100.713 52.7023C97.4726 53.4136 88.2658 61.5931 84.0674 65.5939C84.232 67.0098 85.2923 69.7232 88.2164 69.249C89.4809 69.17 98.9841 60.2924 103.578 55.8635C107.677 54.0195 116.449 49.5511 118.741 46.4294Z" fill="#D9D4C8"/>
<path d="M118.741 46.4294C118.82 43.3078 116.074 42.0335 114.691 41.7865C111.382 45.1288 103.953 51.9911 100.713 52.7023C97.4726 53.4136 88.2658 61.5931 84.0674 65.5939C84.232 67.0098 85.2923 69.7232 88.2164 69.249C89.4809 69.17 98.9841 60.2924 103.578 55.8635C107.677 54.0195 116.449 49.5511 118.741 46.4294Z" fill="url(#paint64_linear)"/>
<mask id="mask12" mask-type="alpha" maskUnits="userSpaceOnUse" x="84" y="41" width="35" height="29">
<path d="M118.741 46.4294C118.82 43.3078 116.074 42.0335 114.691 41.7865C111.382 45.1288 103.953 51.9911 100.713 52.7023C97.4726 53.4136 88.2658 61.5931 84.0674 65.5939C84.232 67.0098 85.2923 69.7232 88.2164 69.249C89.4809 69.17 98.9841 60.2924 103.578 55.8635C107.677 54.0195 116.449 49.5511 118.741 46.4294Z" fill="#D9D4C8"/>
<path d="M118.741 46.4294C118.82 43.3078 116.074 42.0335 114.691 41.7865C111.382 45.1288 103.953 51.9911 100.713 52.7023C97.4726 53.4136 88.2658 61.5931 84.0674 65.5939C84.232 67.0098 85.2923 69.7232 88.2164 69.249C89.4809 69.17 98.9841 60.2924 103.578 55.8635C107.677 54.0195 116.449 49.5511 118.741 46.4294Z" fill="url(#paint65_linear)"/>
</mask>
<g mask="url(#mask12)">
<path d="M100.564 62.4328C95.7831 59.6272 94.1927 55.9623 93.9951 54.4805L99.132 53.8384C100.927 55.7153 103.726 60.0619 100.564 62.4328Z" fill="#AE917C"/>
</g>
<path d="M97.6994 27.6107C76.3616 30.4755 51.5169 48.7509 53.2951 56.4562C52.8506 57.0489 51.5762 57.4144 50.0352 54.1347C54.2632 39.2773 84.2645 27.6107 93.8961 26.0301C94.176 26.0959 97.7784 26.2672 97.6994 27.6107Z" fill="#6B4C4C"/>
<path d="M97.6994 27.6107C76.3616 30.4755 51.5169 48.7509 53.2951 56.4562C52.8506 57.0489 51.5762 57.4144 50.0352 54.1347C54.2632 39.2773 84.2645 27.6107 93.8961 26.0301C94.176 26.0959 97.7784 26.2672 97.6994 27.6107Z" fill="url(#paint66_linear)"/>
<path d="M59.7293 91.6244C65.4547 89.8389 72.1484 77.5564 74.7795 71.6383C67.1141 65.8725 51.1833 53.9247 48.7837 52.2609C46.0784 50.3851 36.0103 62.085 31.7062 69.4224C30.9283 70.7486 31.1463 72.3882 32.253 73.4556C37.2011 78.2279 49.1034 87.6311 55.8352 91.6244C56.0842 91.7721 56.2351 92.0708 59.7293 91.6244Z" fill="#6B4C4C"/>
<path d="M59.7293 91.6244C65.4547 89.8389 72.1484 77.5564 74.7795 71.6383C67.1141 65.8725 51.1833 53.9247 48.7837 52.2609C46.0784 50.3851 36.0103 62.085 31.7062 69.4224C30.9283 70.7486 31.1463 72.3882 32.253 73.4556C37.2011 78.2279 49.1034 87.6311 55.8352 91.6244C56.0842 91.7721 56.2351 92.0708 59.7293 91.6244Z" fill="url(#paint67_linear)"/>
<mask id="mask13" mask-type="alpha" maskUnits="userSpaceOnUse" x="30" y="52" width="45" height="40">
<path d="M59.7293 91.6244C65.4547 89.8389 72.1484 77.5564 74.7795 71.6383C67.1141 65.8725 51.1833 53.9247 48.7837 52.2609C45.7842 50.1812 33.7335 64.7902 30.5234 71.6383C33.4703 75.25 48.082 87.0253 55.8352 91.6244C56.0596 91.7576 56.2351 92.0708 59.7293 91.6244Z" fill="#6B4C4C"/>
</mask>
<g mask="url(#mask13)">
<path d="M75.769 71.8174C73.1378 77.7355 66.232 90.3324 60.5066 92.1179C58.1779 92.4154 57.457 92.6842 57.2819 92.7753C57.2356 92.8215 57.2022 92.8168 57.2819 92.7753C57.2865 92.7708 57.2913 92.7657 57.296 92.76C56.7302 92.5126 58.2672 95.285 55.3203 91.6733C58.5303 84.8253 70.9419 68.9967 73.9415 71.0764C76.3411 72.7403 74.139 70.8111 75.769 71.8174Z" fill="#5A3737"/>
<path d="M75.769 71.8174C73.1378 77.7355 66.232 90.3324 60.5066 92.1179C58.1779 92.4154 57.457 92.6842 57.2819 92.7753C57.2356 92.8215 57.2022 92.8168 57.2819 92.7753C57.2865 92.7708 57.2913 92.7657 57.296 92.76C56.7302 92.5126 58.2672 95.285 55.3203 91.6733C58.5303 84.8253 70.9419 68.9967 73.9415 71.0764C76.3411 72.7403 74.139 70.8111 75.769 71.8174Z" fill="url(#paint68_linear)"/>
<path d="M46.3796 54.925H41.5391V51.9614H47.6144C48.2894 52.9493 49.9161 56.8217 51.0225 64.4085C47.7823 61.2078 46.5771 56.7525 46.3796 54.925Z" fill="#4E2D2D"/>
</g>
<path d="M63.6189 72.8053C67.6494 70.5925 70.3693 70.8789 71.67 70.8295C65.4465 68.9855 52.7722 65.7025 51.8634 67.3226C50.9546 68.9427 51.8469 72.4101 52.6043 74.2871C54.8764 74.4682 61.2876 74.2278 63.6189 72.8053Z" fill="#4E2D2D"/>
<path d="M50.7748 53.4927C44.6895 50.0944 42.1145 41.0786 41.5877 36.9954C40.5603 42.804 36.2203 49.3601 34.1787 51.9121C38.6241 52.9658 48.1668 54.7571 50.7748 53.4927Z" fill="#EDF2F6"/>
<path d="M50.7748 53.4927C44.6895 50.0944 42.1145 41.0786 41.5877 36.9954C40.5603 42.804 36.2203 49.3601 34.1787 51.9121C38.6241 52.9658 48.1668 54.7571 50.7748 53.4927Z" fill="url(#paint69_linear)"/>
<path d="M48.7991 61.1485C48.3644 52.811 47.7618 51.2206 47.0703 50.3315C53.7384 53.9372 75.4219 71.6692 74.681 71.6692C73.9401 71.6692 69.149 70.8296 63.1724 72.262C59.4667 73.1501 55.4624 73.344 53.2427 73.4092C52.3169 73.4365 51.4046 73.1184 50.9815 72.2944C50.1339 70.6443 49.1158 67.2246 48.7991 61.1485Z" fill="#6B4C4C"/>
<path d="M48.7991 61.1485C48.3644 52.811 47.7618 51.2206 47.0703 50.3315C53.7384 53.9372 75.4219 71.6692 74.681 71.6692C73.9401 71.6692 69.149 70.8296 63.1724 72.262C59.4667 73.1501 55.4624 73.344 53.2427 73.4092C52.3169 73.4365 51.4046 73.1184 50.9815 72.2944C50.1339 70.6443 49.1158 67.2246 48.7991 61.1485Z" fill="url(#paint70_linear)"/>
<path d="M91.6237 42.7743C91.4261 41.6679 89.862 39.1358 88.8082 38.1808C85.0767 32.3525 92.8585 23.9557 97.6002 25.0423C102.342 26.129 104.96 47.5655 105.849 52.6036C106.442 56.8514 106.392 64.6259 101.453 61.7413C95.2787 58.1356 91.8706 44.1573 91.6237 42.7743Z" fill="#99684D"/>
<path d="M91.6237 42.7743C91.4261 41.6679 89.862 39.1358 88.8082 38.1808C85.0767 32.3525 92.8585 23.9557 97.6002 25.0423C102.342 26.129 104.96 47.5655 105.849 52.6036C106.442 56.8514 106.392 64.6259 101.453 61.7413C95.2787 58.1356 91.8706 44.1573 91.6237 42.7743Z" fill="url(#paint71_linear)"/>
<path d="M18.5718 65.3514C23.353 58.5944 28.5327 57.2345 30.5249 57.3991C26.524 54.8307 21.6835 53.2994 13.6325 56.6582C11.0245 58.2387 7.54066 57.3167 6.12473 56.6582C5.77898 57.0533 4.06998 58.8809 0 63.0299C1.1064 65.4798 4.18194 65.5983 5.58141 65.3514C8.05106 64.2483 14.1066 62.7039 18.5718 65.3514Z" fill="#EDF2F7"/>
<path d="M18.5718 65.3514C23.353 58.5944 28.5327 57.2345 30.5249 57.3991C26.524 54.8307 21.6835 53.2994 13.6325 56.6582C11.0245 58.2387 7.54066 57.3167 6.12473 56.6582C5.77898 57.0533 4.06998 58.8809 0 63.0299C1.1064 65.4798 4.18194 65.5983 5.58141 65.3514C8.05106 64.2483 14.1066 62.7039 18.5718 65.3514Z" fill="url(#paint72_linear)"/>
<path d="M20.5456 135.88C21.8093 135.722 24.5285 135.058 25.622 134.547C26.6427 137.162 28.9634 138.053 30.4823 138.152L30.472 138.199C30.1667 139.575 29.6519 141.897 29.9883 143.19C30.3285 144.498 35.4228 147.006 37.0429 148.426C37.1985 148.562 37.5368 148.426 37.0429 149.908C28.5982 150.453 24.7527 148.48 24.7527 146.747C24.7527 145.36 22.8071 143.033 22.6451 142.571C21.4908 141.3 19.282 137.861 20.5456 135.88Z" fill="#B79481"/>
<path d="M21.437 135.732C22.7006 135.573 25.2136 134.268 26.3072 133.756C27.3278 136.372 29.6486 137.263 31.1674 137.362L31.1571 137.408C30.8518 138.785 30.3371 141.107 30.6735 142.4C31.0137 143.708 35.3189 146.759 36.939 148.179C37.0946 148.315 37.668 148.75 36.939 149.266C28.4943 149.81 25.4378 147.69 25.4378 145.956C25.4378 144.569 23.4923 142.243 23.3303 141.781C22.1759 140.509 20.1733 137.713 21.437 135.732Z" fill="#663F2A"/>
<path d="M21.437 135.732C22.7006 135.573 25.2136 134.268 26.3072 133.756C27.3278 136.372 29.6486 137.263 31.1674 137.362L31.1571 137.408C30.8518 138.785 30.3371 141.107 30.6735 142.4C31.0137 143.708 35.3189 146.759 36.939 148.179C37.0946 148.315 37.668 148.75 36.939 149.266C28.4943 149.81 25.4378 147.69 25.4378 145.956C25.4378 144.569 23.4923 142.243 23.3303 141.781C22.1759 140.509 20.1733 137.713 21.437 135.732Z" fill="url(#paint73_linear)"/>
<path d="M101.229 17.1379C104.185 15.2167 104.369 18.0771 104.158 19.6781L101.455 23.5111C100.223 22.2179 98.2735 19.0591 101.229 17.1379Z" fill="#FFE0CD"/>
<path d="M101.229 17.1379C104.185 15.2167 104.369 18.0771 104.158 19.6781L101.455 23.5111C100.223 22.2179 98.2735 19.0591 101.229 17.1379Z" fill="url(#paint74_linear)"/>
<circle cx="116.369" cy="21.7329" r="0.098786" fill="white"/>
<circle cx="52.6536" cy="71.4222" r="0.790288" fill="#7A5748"/>
<defs>
<linearGradient id="paint0_linear" x1="309.32" y1="65.9085" x2="317.88" y2="122.992" gradientUnits="userSpaceOnUse">
<stop stop-color="#AC7D63"/>
<stop offset="0.34967" stop-color="#68483E"/>
<stop offset="0.614583" stop-color="#68483E"/>
<stop offset="0.888794" stop-color="#340C0C"/>
<stop offset="1" stop-color="#38242B"/>
</linearGradient>
<linearGradient id="paint1_linear" x1="319.484" y1="138.06" x2="319.484" y2="148.6" gradientUnits="userSpaceOnUse">
<stop stop-color="#855755"/>
<stop offset="0.746064" stop-color="#DEB2A3"/>
</linearGradient>
<linearGradient id="paint2_linear" x1="365.224" y1="135.067" x2="365.224" y2="146.107" gradientUnits="userSpaceOnUse">
<stop stop-color="#A0706B"/>
<stop offset="0.734047" stop-color="#DEB2A3"/>
</linearGradient>
<linearGradient id="paint3_linear" x1="336.344" y1="117.631" x2="335.655" y2="142.75" gradientUnits="userSpaceOnUse">
<stop offset="0.073425" stop-color="#332631"/>
<stop offset="0.295086" stop-color="#431E1B"/>
<stop offset="0.893913" stop-color="#7D584B"/>
<stop offset="1" stop-color="#5A3830"/>
</linearGradient>
<linearGradient id="paint4_linear" x1="367.185" y1="83.8201" x2="367.185" y2="107.222" gradientUnits="userSpaceOnUse">
<stop stop-color="#36252E"/>
<stop offset="0.190253" stop-color="#381110"/>
<stop offset="0.5" stop-color="#68483E"/>
<stop offset="1" stop-color="#4F3939"/>
</linearGradient>
<linearGradient id="paint5_linear" x1="342.679" y1="77.2939" x2="345.96" y2="122.382" gradientUnits="userSpaceOnUse">
<stop stop-color="#372026"/>
<stop offset="0.0572917" stop-color="#340D0D"/>
<stop offset="0.177186" stop-color="#68483E"/>
<stop offset="0.661458" stop-color="#68483E"/>
<stop offset="0.796875" stop-color="#47221E"/>
</linearGradient>
<linearGradient id="paint6_linear" x1="327.142" y1="102.082" x2="336.27" y2="101.749" gradientUnits="userSpaceOnUse">
<stop stop-color="#4E2A25"/>
<stop offset="1" stop-color="#512D28" stop-opacity="0"/>
</linearGradient>
<linearGradient id="paint7_linear" x1="363.665" y1="81.1974" x2="357.27" y2="112.514" gradientUnits="userSpaceOnUse">
<stop stop-color="#5C4347"/>
<stop offset="0.111056" stop-color="#724445"/>
<stop offset="0.382855" stop-color="#DEB2A3"/>
<stop offset="0.567708" stop-color="#DEB2A3"/>
<stop offset="1" stop-color="#825050"/>
</linearGradient>
<linearGradient id="paint8_linear" x1="352.273" y1="105.92" x2="347.597" y2="109.927" gradientUnits="userSpaceOnUse">
<stop stop-color="#DEB2A3" stop-opacity="0"/>
<stop offset="0.0696318" stop-color="#744646"/>
</linearGradient>
<linearGradient id="paint9_linear" x1="363.823" y1="46" x2="363.823" y2="84.3209" gradientUnits="userSpaceOnUse">
<stop stop-color="#8A6350"/>
<stop offset="0.857562" stop-color="#370F0F"/>
<stop offset="0.951403" stop-color="#35252F"/>
</linearGradient>
<linearGradient id="paint10_linear" x1="367.185" y1="63.7245" x2="367.185" y2="84.9059" gradientUnits="userSpaceOnUse">
<stop stop-color="#DEB2A3"/>
<stop offset="0.414268" stop-color="#DEB2A3"/>
<stop offset="0.894388" stop-color="#915B59"/>
<stop offset="1" stop-color="#573340"/>
</linearGradient>
<linearGradient id="paint11_linear" x1="370.733" y1="73.9759" x2="370.733" y2="80.0737" gradientUnits="userSpaceOnUse">
<stop stop-color="white"/>
<stop offset="1" stop-color="white" stop-opacity="0"/>
</linearGradient>
<linearGradient id="paint12_linear" x1="354.683" y1="138.06" x2="373.759" y2="111.411" gradientUnits="userSpaceOnUse">
<stop offset="0.226504" stop-color="#47221E"/>
<stop offset="0.608347" stop-color="#68483E"/>
<stop offset="1" stop-color="#815A49"/>
</linearGradient>
<linearGradient id="paint13_linear" x1="344.521" y1="105.205" x2="335.333" y2="124.568" gradientUnits="userSpaceOnUse">
<stop offset="0.0201204" stop-color="#68483E"/>
<stop offset="1" stop-color="#4D2924" stop-opacity="0"/>
</linearGradient>
<linearGradient id="paint14_linear" x1="354.717" y1="138.06" x2="373.793" y2="111.411" gradientUnits="userSpaceOnUse">
<stop offset="0.226504" stop-color="#47221E"/>
<stop offset="0.608347" stop-color="#68483E"/>
<stop offset="1" stop-color="#815A49"/>
</linearGradient>
<linearGradient id="paint15_linear" x1="344.555" y1="105.205" x2="335.367" y2="124.568" gradientUnits="userSpaceOnUse">
<stop offset="0.0201204" stop-color="#68483E"/>
<stop offset="1" stop-color="#4D2924" stop-opacity="0"/>
</linearGradient>
<linearGradient id="paint16_linear" x1="375.521" y1="91.8675" x2="378.627" y2="103.275" gradientUnits="userSpaceOnUse">
<stop stop-color="#AF827A"/>
<stop offset="0.44197" stop-color="#DEB2A3"/>
<stop offset="0.58626" stop-color="#DEB2A3"/>
<stop offset="1" stop-color="#773A3A"/>
</linearGradient>
<linearGradient id="paint17_linear" x1="378.544" y1="97.0197" x2="378.54" y2="103.188" gradientUnits="userSpaceOnUse">
<stop stop-color="#CDAEA5" stop-opacity="0"/>
<stop offset="0.765934" stop-color="#AA8077"/>
<stop offset="1" stop-color="#773A3A"/>
</linearGradient>
<linearGradient id="paint18_linear" x1="375.615" y1="96.7119" x2="375.615" y2="100.731" gradientUnits="userSpaceOnUse">
<stop stop-color="#CEACA1" stop-opacity="0"/>
<stop offset="1" stop-color="#B89088"/>
</linearGradient>
<linearGradient id="paint19_linear" x1="345.035" y1="96.0964" x2="358.981" y2="127.733" gradientUnits="userSpaceOnUse">
<stop stop-color="#68483E" stop-opacity="0"/>
<stop offset="0.316119" stop-color="#68483E"/>
<stop offset="0.509554" stop-color="#3F1816"/>
<stop offset="0.661506" stop-color="#36252D"/>
</linearGradient>
<linearGradient id="paint20_linear" x1="350.264" y1="112.882" x2="355.544" y2="98.1764" gradientUnits="userSpaceOnUse">
<stop stop-color="#3A1312"/>
<stop offset="1" stop-color="#68483E" stop-opacity="0"/>
</linearGradient>
<linearGradient id="paint21_linear" x1="361.825" y1="94.4698" x2="353.85" y2="103.787" gradientUnits="userSpaceOnUse">
<stop stop-color="#835C4B"/>
<stop offset="1" stop-color="#5E3C34" stop-opacity="0"/>
</linearGradient>
<linearGradient id="paint22_linear" x1="374.638" y1="99.6747" x2="376.898" y2="102.232" gradientUnits="userSpaceOnUse">
<stop stop-color="#DEB2A3"/>
<stop offset="0.578125" stop-color="#B0857D"/>
<stop offset="1" stop-color="#773A3A"/>
</linearGradient>
<linearGradient id="paint23_linear" x1="371.104" y1="93.6892" x2="374.521" y2="104.626" gradientUnits="userSpaceOnUse">
<stop stop-color="#AF837B"/>
<stop offset="0.332929" stop-color="#DEB2A3"/>
<stop offset="0.512487" stop-color="#DEB2A3"/>
<stop offset="1" stop-color="#773A3A"/>
</linearGradient>
<linearGradient id="paint24_linear" x1="364.992" y1="98.3084" x2="371.234" y2="99.9517" gradientUnits="userSpaceOnUse">
<stop stop-color="#AE857A"/>
<stop offset="1" stop-color="#B1857D" stop-opacity="0"/>
</linearGradient>
<linearGradient id="paint25_linear" x1="372.871" y1="102.733" x2="374.199" y2="104.521" gradientUnits="userSpaceOnUse">
<stop stop-color="#BD968D" stop-opacity="0"/>
<stop offset="1" stop-color="#734646"/>
</linearGradient>
<linearGradient id="paint26_linear" x1="372.281" y1="99.1542" x2="372.281" y2="104.229" gradientUnits="userSpaceOnUse">
<stop offset="0.13013" stop-color="#DEB2A3"/>
<stop offset="0.696537" stop-color="#A87C74"/>
<stop offset="1" stop-color="#773A3A"/>
</linearGradient>
<linearGradient id="paint27_linear" x1="370.146" y1="104.489" x2="373.487" y2="103.041" gradientUnits="userSpaceOnUse">
<stop offset="0.145943" stop-color="#845253"/>
<stop offset="1" stop-color="#C39E94" stop-opacity="0"/>
</linearGradient>
<linearGradient id="paint28_linear" x1="371.912" y1="68.7061" x2="371.912" y2="74.041" gradientUnits="userSpaceOnUse">
<stop stop-color="#260A0A"/>
<stop offset="0.376678" stop-color="#725D57"/>
<stop offset="0.631584" stop-color="#260A0A"/>
</linearGradient>
<linearGradient id="paint29_linear" x1="345.734" y1="65.8945" x2="347.032" y2="77.4644" gradientUnits="userSpaceOnUse">
<stop stop-color="#DEB2A3"/>
<stop offset="0.823034" stop-color="#834848"/>
<stop offset="0.891739" stop-color="#68555C"/>
</linearGradient>
<linearGradient id="paint30_linear" x1="123.415" y1="13.442" x2="123.415" y2="14.5329" gradientUnits="userSpaceOnUse">
<stop offset="0.0842856" stop-color="#E3FDFE"/>
<stop offset="0.372971" stop-color="white"/>
<stop offset="0.613433" stop-color="#E3FDFE"/>
</linearGradient>
<linearGradient id="paint31_linear" x1="74.0644" y1="122.156" x2="74.0644" y2="128.274" gradientUnits="userSpaceOnUse">
<stop stop-color="#BD7178"/>
<stop offset="1" stop-color="#FFE0CD"/>
</linearGradient>
<linearGradient id="paint32_linear" x1="74.0644" y1="122.156" x2="74.0644" y2="128.274" gradientUnits="userSpaceOnUse">
<stop stop-color="#BD7178"/>
<stop offset="1" stop-color="#FFE0CD"/>
</linearGradient>
<linearGradient id="paint33_linear" x1="100.267" y1="94.0936" x2="77.1017" y2="124.075" gradientUnits="userSpaceOnUse">
<stop stop-color="#6DACD0"/>
<stop offset="0.403451" stop-color="#8BD0E2"/>
<stop offset="0.621701" stop-color="#8BD0E2"/>
<stop offset="1" stop-color="#71B0D2"/>
</linearGradient>
<linearGradient id="paint34_linear" x1="78.4353" y1="105.256" x2="107.478" y2="115.876" gradientUnits="userSpaceOnUse">
<stop stop-color="#639BC9"/>
<stop offset="1" stop-color="#85C8DE" stop-opacity="0"/>
</linearGradient>
<linearGradient id="paint35_linear" x1="100.267" y1="94.0683" x2="77.1017" y2="124.05" gradientUnits="userSpaceOnUse">
<stop stop-color="#6DACD0"/>
<stop offset="0.403451" stop-color="#8BD0E2"/>
<stop offset="0.621701" stop-color="#8BD0E2"/>
<stop offset="1" stop-color="#71B0D2"/>
</linearGradient>
<linearGradient id="paint36_linear" x1="78.4353" y1="105.231" x2="107.478" y2="115.851" gradientUnits="userSpaceOnUse">
<stop stop-color="#639BC9"/>
<stop offset="1" stop-color="#85C8DE" stop-opacity="0"/>
</linearGradient>
<linearGradient id="paint37_linear" x1="101.156" y1="75.6207" x2="93.5989" y2="98.3908" gradientUnits="userSpaceOnUse">
<stop offset="0.240648" stop-color="#8BD0E2"/>
<stop offset="1" stop-color="#619CC8"/>
</linearGradient>
<linearGradient id="paint38_linear" x1="72.1864" y1="124.47" x2="72.1864" y2="140.625" gradientUnits="userSpaceOnUse">
<stop stop-color="#99664D"/>
<stop offset="0.243956" stop-color="#663F2A"/>
<stop offset="1" stop-color="#3C1A1A"/>
</linearGradient>
<linearGradient id="paint39_linear" x1="29.9322" y1="132.719" x2="29.2901" y2="138.547" gradientUnits="userSpaceOnUse">
<stop stop-color="#CF9090"/>
<stop offset="0.860452" stop-color="#FFE0CD"/>
</linearGradient>
<linearGradient id="paint40_linear" x1="29.9322" y1="132.719" x2="29.2901" y2="138.547" gradientUnits="userSpaceOnUse">
<stop stop-color="#CF9090"/>
<stop offset="0.860452" stop-color="#FFE0CD"/>
</linearGradient>
<linearGradient id="paint41_linear" x1="84.3147" y1="69.2984" x2="27.167" y2="136.72" gradientUnits="userSpaceOnUse">
<stop stop-color="#8BD0E2"/>
<stop offset="0.541444" stop-color="#8BD0E2"/>
<stop offset="1" stop-color="#619CC8"/>
</linearGradient>
<linearGradient id="paint42_linear" x1="37.7371" y1="110.245" x2="63.6684" y2="127.138" gradientUnits="userSpaceOnUse">
<stop stop-color="#5E94C6"/>
<stop offset="1" stop-color="#8BD0E2" stop-opacity="0"/>
</linearGradient>
<linearGradient id="paint43_linear" x1="84.3147" y1="69.2984" x2="27.167" y2="136.72" gradientUnits="userSpaceOnUse">
<stop stop-color="#8BD0E2"/>
<stop offset="0.541444" stop-color="#8BD0E2"/>
<stop offset="1" stop-color="#619CC8"/>
</linearGradient>
<linearGradient id="paint44_linear" x1="89.4023" y1="40.0083" x2="89.4023" y2="77.6458" gradientUnits="userSpaceOnUse">
<stop stop-color="#B44040"/>
<stop offset="1" stop-color="#FAB2A8"/>
</linearGradient>
<linearGradient id="paint45_linear" x1="141.192" y1="54.456" x2="139.925" y2="57.5804" gradientUnits="userSpaceOnUse">
<stop offset="0.0770569" stop-color="#FFE0CD"/>
<stop offset="0.878762" stop-color="#E3ADA1"/>
</linearGradient>
<linearGradient id="paint46_linear" x1="136.213" y1="51.4222" x2="130.78" y2="61.9726" gradientUnits="userSpaceOnUse">
<stop stop-color="#FFE0CD"/>
<stop offset="1" stop-color="#D6958D"/>
</linearGradient>
<linearGradient id="paint47_linear" x1="125.015" y1="37.3411" x2="115.679" y2="56.5549" gradientUnits="userSpaceOnUse">
<stop stop-color="#C0A88B"/>
<stop offset="0.349482" stop-color="#99684D"/>
<stop offset="0.861419" stop-color="#693434"/>
</linearGradient>
<linearGradient id="paint48_linear" x1="106.739" y1="29.0431" x2="100.914" y2="31.9447" gradientUnits="userSpaceOnUse">
<stop stop-color="#A85166"/>
<stop offset="0.41587" stop-color="#D7968E"/>
<stop offset="1" stop-color="#FFE0CD"/>
</linearGradient>
<linearGradient id="paint49_linear" x1="106.767" y1="29.0275" x2="100.921" y2="31.9396" gradientUnits="userSpaceOnUse">
<stop stop-color="#A85166"/>
<stop offset="0.41587" stop-color="#D7968E"/>
<stop offset="1" stop-color="#FFE0CD"/>
</linearGradient>
<linearGradient id="paint50_linear" x1="119.184" y1="13.5337" x2="119.184" y2="28.4504" gradientUnits="userSpaceOnUse">
<stop stop-color="#94412F"/>
<stop offset="0.848958" stop-color="#591D1F"/>
<stop offset="1" stop-color="#4C212D"/>
</linearGradient>
<linearGradient id="paint51_linear" x1="123.591" y1="15.4882" x2="103.772" y2="30.1928" gradientUnits="userSpaceOnUse">
<stop stop-color="#DC9E94"/>
<stop offset="0.234375" stop-color="#FFE0CD"/>
<stop offset="0.478601" stop-color="#FFE0CD"/>
<stop offset="0.820581" stop-color="#EFBAA9"/>
<stop offset="0.961304" stop-color="#C17675"/>
</linearGradient>
<linearGradient id="paint52_linear" x1="123.572" y1="15.5032" x2="103.756" y2="30.2215" gradientUnits="userSpaceOnUse">
<stop stop-color="#DC9E94"/>
<stop offset="0.234375" stop-color="#FFE0CD"/>
<stop offset="0.478601" stop-color="#FFE0CD"/>
<stop offset="0.820581" stop-color="#EFBAA9"/>
<stop offset="0.961304" stop-color="#C17675"/>
</linearGradient>
<linearGradient id="paint53_linear" x1="106.544" y1="0.163401" x2="106.544" y2="27.6601" gradientUnits="userSpaceOnUse">
<stop stop-color="#AF5929"/>
<stop offset="0.299522" stop-color="#8E3622"/>
<stop offset="0.802083" stop-color="#5C1B1B"/>
<stop offset="1" stop-color="#462334"/>
</linearGradient>
<linearGradient id="paint54_linear" x1="113.405" y1="10.0762" x2="112.558" y2="19.4717" gradientUnits="userSpaceOnUse">
<stop offset="0.220517" stop-color="#8E3622"/>
<stop offset="0.805426" stop-color="#601D1C"/>
<stop offset="1" stop-color="#4B222E"/>
</linearGradient>
<linearGradient id="paint55_linear" x1="113.397" y1="10.1036" x2="112.553" y2="19.4685" gradientUnits="userSpaceOnUse">
<stop offset="0.220517" stop-color="#8E3622"/>
<stop offset="0.805426" stop-color="#601D1C"/>
<stop offset="1" stop-color="#4B222E"/>
</linearGradient>
<linearGradient id="paint56_linear" x1="107.355" y1="11.4272" x2="107.355" y2="23.4122" gradientUnits="userSpaceOnUse">
<stop stop-color="#8E3622"/>
<stop offset="0.817708" stop-color="#5C1B1B"/>
<stop offset="1" stop-color="#482332"/>
</linearGradient>
<linearGradient id="paint57_linear" x1="112.569" y1="9.28589" x2="112.569" y2="16.9912" gradientUnits="userSpaceOnUse">
<stop offset="0.406157" stop-color="#460C0C"/>
<stop offset="1" stop-color="#0D0032"/>
</linearGradient>
<linearGradient id="paint58_linear" x1="119.365" y1="7.71398" x2="116.221" y2="10.9061" gradientUnits="userSpaceOnUse">
<stop offset="0.265625" stop-color="#E3FDFE"/>
<stop offset="0.53125" stop-color="white"/>
<stop offset="0.65625" stop-color="#E3FDFE"/>
</linearGradient>
<linearGradient id="paint59_linear" x1="98.6871" y1="35.8099" x2="69.0168" y2="100.663" gradientUnits="userSpaceOnUse">
<stop offset="0.0542677" stop-color="#99684D"/>
<stop offset="1" stop-color="#693434"/>
</linearGradient>
<linearGradient id="paint60_linear" x1="98.6871" y1="35.8099" x2="69.0168" y2="100.663" gradientUnits="userSpaceOnUse">
<stop offset="0.0542677" stop-color="#99684D"/>
<stop offset="1" stop-color="#693434"/>
</linearGradient>
<linearGradient id="paint61_linear" x1="98.7369" y1="43.5152" x2="69.842" y2="71.0271" gradientUnits="userSpaceOnUse">
<stop stop-color="#421F1F"/>
<stop offset="0.503664" stop-color="#6B4C4C"/>
<stop offset="1" stop-color="#5A3737"/>
</linearGradient>
<linearGradient id="paint62_linear" x1="103.478" y1="35.6617" x2="103.478" y2="73.1118" gradientUnits="userSpaceOnUse">
<stop stop-color="#EBE4D1"/>
<stop offset="0.421875" stop-color="#B99F8C"/>
</linearGradient>
<linearGradient id="paint63_linear" x1="103.478" y1="35.6617" x2="103.478" y2="73.1118" gradientUnits="userSpaceOnUse">
<stop stop-color="#EBE4D1"/>
<stop offset="0.421875" stop-color="#B99F8C"/>
</linearGradient>
<linearGradient id="paint64_linear" x1="117.655" y1="43.3177" x2="88.2658" y2="64.2603" gradientUnits="userSpaceOnUse">
<stop stop-color="#EDE5D2"/>
<stop offset="0.449816" stop-color="#D9D4C8"/>
<stop offset="1" stop-color="#B99F8C"/>
</linearGradient>
<linearGradient id="paint65_linear" x1="117.655" y1="43.3177" x2="88.2658" y2="64.2603" gradientUnits="userSpaceOnUse">
<stop stop-color="#EDE5D2"/>
<stop offset="0.449816" stop-color="#D9D4C8"/>
<stop offset="1" stop-color="#B99F8C"/>
</linearGradient>
<linearGradient id="paint66_linear" x1="95.0322" y1="25.4868" x2="54.2336" y2="57.444" gradientUnits="userSpaceOnUse">
<stop stop-color="#421F1F"/>
<stop offset="0.611501" stop-color="#6B4C4C"/>
<stop offset="1" stop-color="#5A3737"/>
<stop offset="1" stop-color="#421F1F"/>
</linearGradient>
<linearGradient id="paint67_linear" x1="65.6418" y1="62.7785" x2="45.0944" y2="86.6847" gradientUnits="userSpaceOnUse">
<stop offset="0.46875" stop-color="#6A4A4A"/>
<stop offset="0.708803" stop-color="#5F3F3F"/>
<stop offset="0.923207" stop-color="#482626"/>
</linearGradient>
<linearGradient id="paint68_linear" x1="74.386" y1="72.0149" x2="59.2718" y2="94.2417" gradientUnits="userSpaceOnUse">
<stop stop-color="#6A4A4A"/>
<stop offset="0.0920097" stop-color="#6A4A4A"/>
<stop offset="0.955271" stop-color="#4B2A2A"/>
</linearGradient>
<linearGradient id="paint69_linear" x1="42.4767" y1="36.9954" x2="42.4767" y2="53.9276" gradientUnits="userSpaceOnUse">
<stop stop-color="#EAEFF4"/>
<stop offset="1" stop-color="#D8E1E8"/>
</linearGradient>
<linearGradient id="paint70_linear" x1="66.6299" y1="58.9259" x2="48.5027" y2="75.917" gradientUnits="userSpaceOnUse">
<stop stop-color="#7C6761"/>
<stop offset="0.400676" stop-color="#6B4C4C"/>
<stop offset="0.648314" stop-color="#603E3E"/>
<stop offset="0.894569" stop-color="#492727"/>
</linearGradient>
<linearGradient id="paint71_linear" x1="98.6869" y1="37.3411" x2="97.0075" y2="68.1129" gradientUnits="userSpaceOnUse">
<stop stop-color="#99684D"/>
<stop offset="0.971025" stop-color="#693434"/>
</linearGradient>
<linearGradient id="paint72_linear" x1="15.2624" y1="54.7274" x2="15.2624" y2="65.4404" gradientUnits="userSpaceOnUse">
<stop stop-color="#EDF2F6"/>
<stop offset="1" stop-color="#D8E1E8"/>
</linearGradient>
<linearGradient id="paint73_linear" x1="28.2532" y1="135.139" x2="29.1668" y2="149.353" gradientUnits="userSpaceOnUse">
<stop stop-color="#99664D"/>
<stop offset="0.552083" stop-color="#653E2A"/>
<stop offset="1" stop-color="#3C1A1A"/>
</linearGradient>
<linearGradient id="paint74_linear" x1="104.834" y1="18.2001" x2="98.4952" y2="21.7599" gradientUnits="userSpaceOnUse">
<stop stop-color="#F9D3C0"/>
<stop offset="0.415285" stop-color="#F0BDAC"/>
<stop offset="0.667238" stop-color="#E0A398"/>
<stop offset="0.848915" stop-color="#B56471"/>
</linearGradient>
</defs>
</svg>
