<svg width="34" height="40" viewBox="0 0 34 40" fill="none" xmlns="http://www.w3.org/2000/svg">
<path d="M18.7612 16.0881C17.1294 13.5149 15.2928 12.9138 12.3228 13.0835C9.70812 13.2329 9.26669 17.4259 9.31829 19.2834C9.45275 24.1238 14.4091 27.4313 18.2366 29.7278C19.5721 30.5291 21.7406 31.2656 23.268 30.4432C25.7025 29.1324 27.1591 25.4725 27.9656 22.9795C29.1886 19.1993 28.7063 15.7048 26.058 12.6781C22.9038 9.07336 20.1912 13.9443 19.1904 16.9465" stroke="#FF6060" stroke-width="3" stroke-linecap="round"/>
<path d="M14.0859 30.4302V38.3389" stroke="#FEE761" stroke-width="3" stroke-linecap="round"/>
<path d="M27.8623 28.3894C29.096 29.9134 30.3735 31.4859 32.1994 32.2162" stroke="#FEE761" stroke-width="3" stroke-linecap="round"/>
<path d="M27.3525 12.3166C27.9303 11.9727 31.6896 10.4441 31.6896 9.85048C31.6896 7.24517 30.3982 4.83898 29.9037 2.36694" stroke="#FEE761" stroke-width="3" stroke-linecap="round"/>
<path d="M7.96324 20.9907C6.66126 21.741 2.35059 23.4606 2.35059 25.3561C2.35059 27.4932 2.41593 30.5609 3.37107 32.4711" stroke="#FEE761" stroke-width="3" stroke-linecap="round"/>
</svg>
